<svg width="115" height="108" viewBox="0 0 115 108" fill="none" xmlns="http://www.w3.org/2000/svg">
<path d="M70.4092 4.12402C75.5611 0.0626471 80.3537 -0.658426 86.8115 0.496094C89.3943 0.957867 92.5429 2.57081 94.6201 3.76758C95.4394 4.19163 96.2145 4.65072 96.8633 5.13965C101.438 8.58823 102.168 12.3674 105.002 17.3467C107.198 21.2056 110.077 27.5215 110.077 27.5215C110.094 27.5591 114.592 37.9035 114.146 44.8145C113.911 48.4694 113.257 50.4907 112.112 53.9697C110.539 58.7526 106.79 64.5324 104.313 68.0518C103.916 68.6171 103.04 68.1518 103.25 67.4932C104.412 63.8448 105.944 58.2544 106.009 53.9697C106.106 47.5036 106.428 43.1502 102.957 37.6934C98.9403 31.3778 91.8158 27.7957 84.7158 29.8096C80.7667 36.9311 75.951 44.8988 70.4092 52.7197C58.5053 69.5191 50.9564 95.2886 50.9365 95.3564L50.8955 95.2734C48.8502 102.902 37.9642 108.376 25.1025 107.822C11.0471 107.217 -0.0419317 99.6434 0.333984 90.9062C0.710097 82.1689 12.4092 75.5766 26.4648 76.1816C35.0298 76.5503 42.4936 79.506 46.9326 83.7363C47.2219 76.2054 48.3951 56.7246 53.0449 39.6143C54.5616 34.0332 57.4148 25.6048 64.1924 11.8965C66.6391 6.94774 66.0737 7.54176 70.4092 4.12402Z" fill="#E4C0FF"/>
<path d="M58.5117 96.0009C81.5195 99.5 84.5195 80 75.5117 75.5M75.5117 75.5L65.5195 74M75.5117 75.5L67.5195 70.5M75.5117 75.5L72.0117 67.5" stroke="black" stroke-width="2"/>
<circle cx="48.0156" cy="57.5" r="9.8" stroke="black" stroke-width="3.4"/>
<path d="M17.0187 74C9.68537 68.6667 -0.781296 56.9 16.0187 52.5M16.0187 52.5L25.0156 47.5M16.0187 52.5H27.5156M16.0187 52.5L23.0156 59.5" stroke="black" stroke-width="2"/>
<circle cx="40.0156" cy="25.5" r="5.5" fill="black"/>
<circle cx="65.0156" cy="27.5" r="5.5" fill="black"/>
</svg>
