<svg width="68" height="109" viewBox="0 0 68 109" fill="none" xmlns="http://www.w3.org/2000/svg">
<path d="M35.7949 96.4648L35.4043 95.9678C35.1022 98.4083 34.2167 100.748 32.7021 102.794L32.4482 103.125C27.0553 109.982 16.2813 110.716 8.15918 104.703L7.77637 104.412C-0.164169 98.2579 -2.3982 87.7236 2.82129 80.6729C8.12434 73.5103 19.1123 72.6553 27.3633 78.7637L27.7461 79.0527C28.5746 79.6948 29.3397 80.3858 30.042 81.1143L36.3311 0H42.8447L35.7949 96.4648ZM23.793 83.5859C17.5425 78.9587 10.5176 80.3606 7.64355 84.2422C4.76966 88.1241 5.47886 95.2532 11.7295 99.8809C17.9802 104.508 25.006 103.106 27.8799 99.2236C30.7533 95.3416 30.0432 88.2134 23.793 83.5859Z" fill="#459D93"/>
<path d="M38.5732 50.9004C43.2267 48.1605 46.4889 48.8286 48.5557 50.1357C49.6554 50.8314 50.506 51.7645 51.0752 52.6699C51.6793 53.631 51.8398 54.3517 51.8398 54.5732V54.8213L51.9004 55.0615C52.1427 56.0241 51.903 56.3437 51.6738 56.5586C51.2631 56.9437 50.3876 57.3423 48.8438 57.6133C45.7749 58.1518 41.6055 57.9688 37.5586 57.9688C32.618 57.9688 28.3226 57.9585 25.4824 57.3408C24.0341 57.0258 23.3738 56.63 23.1318 56.3594C23.0675 56.2875 22.8526 56.1035 23.1592 55.249L23.2764 54.9209V54.7168C23.2977 54.6781 23.3358 54.6157 23.4014 54.5283C23.6021 54.2608 23.9494 53.906 24.4639 53.498C25.4869 52.6867 26.9537 51.8333 28.5801 51.1631C30.2111 50.491 31.8866 50.0507 33.3223 49.9736C34.7917 49.8948 35.7134 50.2049 36.2188 50.6611L37.3076 51.6445L38.5732 50.9004Z" stroke="black" stroke-width="4"/>
<path d="M33 35.5022C33.1667 36.6688 33 39.1022 31 39.5022C28.5 40.0022 23 33.0022 17.5 35.5022" stroke="black" stroke-width="4"/>
<path d="M40.0469 35.5022C39.8802 36.6688 40.0469 39.1022 42.0469 39.5022C44.5469 40.0022 50.0469 33.0022 55.5469 35.5022" stroke="black" stroke-width="4"/>
<path d="M5.85893 58C2.19227 62.3333 -2.94107 71.3 5.85893 72.5C14.6589 73.7 20.8592 69.6667 22.8594 67.5M22.8594 67.5L24.3594 63M22.8594 67.5L27.3594 65M22.8594 67.5L27.3594 69.5" stroke="black" stroke-width="2"/>
<path d="M61.5004 54C65.1671 58.3333 70.3004 67.3 61.5004 68.5C52.7004 69.7 46.5001 65.6667 44.5 63.5M44.5 63.5L43 59M44.5 63.5L40 61M44.5 63.5L40 65.5" stroke="black" stroke-width="2"/>
</svg>
