<svg width="139" height="124" viewBox="0 0 139 124" fill="none" xmlns="http://www.w3.org/2000/svg">
<path d="M80.0029 4.70801C85.8837 0.0720386 91.3551 -0.750578 98.7266 0.567383C102.168 1.18295 106.594 4.30049 108.883 6.06641C109.244 6.2729 109.595 6.52177 109.929 6.82031C110.621 7.43876 111.342 8.17838 112.069 9.0625C118.067 16.3556 117.863 17.3275 121.888 23.3643C127.236 31.3866 133.347 41.3153 133.368 41.3496C133.368 41.3496 136.168 45.2568 137.577 51.2998C138.321 54.49 138.055 57.6868 137.96 60.4844C137.813 64.7813 134.633 67.6439 132.852 68.916C132.386 69.2481 131.796 68.8489 131.861 68.2812C132.167 65.6416 132.556 59.7671 130.717 55.3369C128.502 49.9999 130.45 52.2559 126.001 46.5C120.844 39.8285 124.636 41.1211 105.817 28.3115C104.171 27.1908 102.758 26.1179 101.548 25.0947C96.321 34.857 88.9705 47.5233 80.0029 60.1787C66.3974 79.3797 57.7754 108.846 57.7754 108.846L57.7266 108.745C55.3956 117.455 42.9671 123.705 28.2832 123.073C12.2393 122.383 -0.418572 113.738 0.0107422 103.765C0.440371 93.7916 13.7942 86.2664 29.8379 86.957C39.618 87.3781 48.1399 90.7553 53.2061 95.5869C53.5359 86.9945 54.8739 64.7524 60.1826 45.2178C61.9139 38.8473 65.1702 29.2271 72.9062 13.5801C75.6992 7.93102 75.0542 8.60921 80.0029 4.70801Z" fill="#FF9790"/>
<path d="M86.5498 21.805L88.9916 16.2675C88.9916 16.2675 94.7041 19.3592 98.0448 22.266C102.937 26.5227 104.555 30.0738 108.324 35.2397C111.245 39.2433 115.401 45.6092 115.401 45.6092C115.401 45.6092 122.039 56.0071 123.449 62.0501C124.193 65.2402 124.146 66.8681 124.051 69.6656C123.925 73.3446 122.299 77.3181 121.065 79.8331C120.745 80.4857 119.805 80.2093 119.823 79.4826C119.894 76.5429 119.788 71.9132 118.72 68.0796C117.125 62.3528 116.274 58.564 111.825 52.808C106.669 46.1364 105.173 43.0594 93.821 41.054C82.4691 39.0487 86.5498 21.805 86.5498 21.805Z" fill="#FF9790"/>
<path d="M65.6641 107.001C88.6719 110.5 91.6719 91 82.6641 86.5M82.6641 86.5L72.6719 85M82.6641 86.5L74.6719 81.5M82.6641 86.5L79.1641 78.5" stroke="black" stroke-width="2"/>
<circle cx="55.1719" cy="68.5" r="9.8" stroke="black" stroke-width="3.4"/>
<path d="M24.175 85C16.8416 79.6667 6.37495 67.9 23.175 63.5M23.175 63.5L32.1719 58.5M23.175 63.5H34.6719M23.175 63.5L30.1719 70.5" stroke="black" stroke-width="2"/>
<circle cx="47.1719" cy="36.5" r="5.5" fill="black"/>
<circle cx="72.1719" cy="38.5" r="5.5" fill="black"/>
</svg>
