<svg width="137" height="120" viewBox="0 0 137 120" fill="none" xmlns="http://www.w3.org/2000/svg">
<path d="M73.5039 19.375C75.5039 33.375 47.5 43.9531 36.5 38.9531L44.5029 32.4483C50.1696 35.115 67 31.9795 73.5039 19.375Z" fill="#E4C0FF" stroke="#E4C0FF" stroke-width="4"/>
<path d="M73.8386 118.489L67.3216 118.529L74.7554 10.9688L85.7613 10.9024L73.8386 118.489Z" fill="#E4C0FF"/>
<ellipse cx="18.5886" cy="16.1372" rx="18.5886" ry="16.1372" transform="matrix(0.803713 -0.595017 -0.595017 -0.803713 37.207 49.0312)" fill="#E4C0FF"/>
<rect x="55.4609" y="31.7734" width="9.62844" height="21.3631" rx="3.61066" fill="#D9D9D9"/>
<path d="M55.4609 35.3841C55.4609 33.39 57.0775 31.7734 59.0716 31.7734H61.4787C63.4728 31.7734 65.0894 33.39 65.0894 35.3841V42.6497C65.0894 43.2141 64.9571 43.7706 64.7031 44.2746L62.296 49.0512C60.5841 52.4482 55.4609 51.2302 55.4609 47.4263V35.3841Z" fill="black"/>
<rect x="72.9141" y="26.9609" width="9.62844" height="21.3631" rx="3.61066" fill="#D9D9D9"/>
<path d="M72.9141 30.5716C72.9141 28.5775 74.5306 26.9609 76.5247 26.9609H78.9318C80.926 26.9609 82.5425 28.5775 82.5425 30.5716V37.8372C82.5425 38.4016 82.4102 38.9581 82.1562 39.4621L79.7491 44.2387C78.0373 47.6357 72.9141 46.4177 72.9141 42.6138V30.5716Z" fill="black"/>
<path d="M35.5 65.5L12 40.5M12 40.5L0.5 38.5M12 40.5L5.5 30.5M12 40.5L17 30.5" stroke="black" stroke-width="2"/>
<path d="M97 73L124.5 28M124.5 28V18M124.5 28L131.5 20M124.5 28H136.5" stroke="black" stroke-width="2"/>
</svg>
