<svg width="143" height="108" viewBox="0 0 143 108" fill="none" xmlns="http://www.w3.org/2000/svg">
<path d="M98.4209 4.12402C103.573 0.0627178 108.365 -0.657461 114.823 0.49707C117.408 0.959221 120.56 2.57442 122.637 3.77148C123.454 4.19483 124.228 4.65268 124.875 5.14062C129.45 8.58927 130.18 12.3683 133.014 17.3477C135.199 21.1879 138.061 27.4607 138.089 27.5215C138.089 27.5215 142.604 37.8919 142.158 44.8154C141.923 48.4703 141.268 50.4916 140.124 53.9707C138.551 58.7536 134.802 64.5334 132.325 68.0527C131.927 68.618 131.052 68.1527 131.262 67.4941C132.424 63.8458 133.956 58.2554 134.021 53.9707C134.118 47.5045 134.439 43.1511 130.969 37.6943C126.952 31.3787 119.827 27.7958 112.728 29.8096C108.778 36.9313 103.963 44.8995 98.4209 52.7207C86.5013 69.5423 78.9482 95.3574 78.9482 95.3574L78.9072 95.2744C76.8617 102.903 65.9758 108.376 53.1143 107.822C39.0587 107.217 27.9696 99.6435 28.3457 90.9062C28.7222 82.1692 40.4211 75.5766 54.4766 76.1816C63.0416 76.5503 70.5053 79.5069 74.9443 83.7373C75.2336 76.2066 76.4067 56.7249 81.0566 39.6143C82.5734 34.0332 85.4267 25.6054 92.2041 11.8975C94.651 6.94838 94.0851 7.54201 98.4209 4.12402Z" fill="#F9CE5C"/>
<path d="M66.8213 51.1699C70.7177 50.9722 73.8163 47.7502 73.8164 43.8047L73.8066 43.4248C73.7957 43.2083 73.7734 42.9944 73.7441 42.7832H70.3721C70.4566 43.1095 70.5019 43.4519 70.502 43.8047C70.5018 46.0472 68.684 47.8652 66.4414 47.8652C64.1989 47.8652 62.381 46.0472 62.3809 43.8047C62.3809 43.4519 62.4262 43.1095 62.5107 42.7832H59.1377C59.1084 42.9943 59.0872 43.2084 59.0762 43.4248L59.0664 43.8047C59.0665 47.8776 62.3685 51.1796 66.4414 51.1797L66.8213 51.1699Z" fill="black"/>
<path d="M87.9189 51.1699C91.8151 50.972 94.9139 47.75 94.9141 43.8047L94.9043 43.4248C94.8933 43.2084 94.8711 42.9943 94.8418 42.7832H91.4697C91.5543 43.1095 91.5996 43.452 91.5996 43.8047C91.5995 46.0471 89.7814 47.865 87.5391 47.8652C85.2965 47.8652 83.4786 46.0473 83.4785 43.8047C83.4785 43.452 83.5229 43.1095 83.6074 42.7832H80.2354C80.2061 42.9943 80.1848 43.2084 80.1738 43.4248L80.1641 43.8047C80.1642 47.8776 83.4661 51.1797 87.5391 51.1797L87.9189 51.1699Z" fill="black"/>
<path d="M51.5312 50.3125C59.4824 58.9522 80.4361 71.0477 100.641 50.3125" stroke="black" stroke-width="4"/>
<path d="M98.832 65.3672C99.5853 72.5981 106.786 87.3613 129.564 88.5664" stroke="black" stroke-width="2"/>
<path d="M129.566 88.4203L135.442 85.8594M129.566 88.4203L136.345 90.3787M129.566 88.4203L132.73 93.241" stroke="black" stroke-width="2"/>
<path d="M42.6758 63.2422C36.0022 66.1262 19.6041 67.0769 7.39988 47.8072" stroke="black" stroke-width="2"/>
<path d="M7.53271 47.7306L6.88875 41.354M7.53271 47.7306L2.50571 42.7789M7.53271 47.7306L1.78048 47.3328" stroke="black" stroke-width="2"/>
</svg>
