<svg width="99" height="132" viewBox="0 0 99 132" fill="none" xmlns="http://www.w3.org/2000/svg">
<path d="M48.5371 115.972C48.6678 119.319 47.7667 122.603 45.7285 125.356C40.4256 132.519 29.4385 133.374 21.1875 127.266C12.9365 121.157 10.5459 110.398 15.8486 103.235C21.1516 96.0725 32.1395 95.2177 40.3906 101.326C41.0208 101.793 41.6168 102.287 42.1777 102.804L48.834 22.7812H55.3477L48.5371 115.972Z" fill="#FFAFF1"/>
<rect width="11.4534" height="25.4123" rx="4.29503" transform="matrix(-1 0 0 1 55.3164 37.9766)" fill="#D9D9D9"/>
<path d="M55.3164 42.2716C55.3164 39.8995 53.3935 37.9766 51.0214 37.9766H48.158C45.7859 37.9766 43.863 39.8995 43.863 42.2716V50.9144C43.863 51.5857 44.0204 52.2477 44.3225 52.8472L47.1858 58.5292C49.2222 62.57 55.3164 61.1213 55.3164 56.5964V42.2716Z" fill="black"/>
<rect width="11.4534" height="25.4123" rx="4.29503" transform="matrix(-1 0 0 1 69.1562 37.9766)" fill="#D9D9D9"/>
<path d="M69.1562 42.2716C69.1562 39.8995 67.2333 37.9766 64.8612 37.9766H61.9979C59.6258 37.9766 57.7028 39.8995 57.7028 42.2716V50.9144C57.7028 51.5857 57.8602 52.2477 58.1623 52.8472L61.0257 58.5292C63.062 62.57 69.1562 61.1213 69.1562 56.5964V42.2716Z" fill="black"/>
<path d="M64.6198 64.6016C67.6025 66.2122 71.7782 70.1851 64.6198 73.1916C72.8506 75.876 68.0214 81.9607 64.6198 82.3186" stroke="black" stroke-width="4"/>
<path d="M32.1218 64.9423C19.9037 63.5014 -3.14943 65.6684 2.38332 85.863M2.38332 85.863L1 93.2975M2.38332 85.863L5.49536 90.0125M2.38332 85.863H9.99071" stroke="black" stroke-width="2" stroke-linejoin="round"/>
<path d="M55.8125 76.1875C55.8125 88.7514 61.8639 111.666 86.0697 102.814M86.0697 102.814L90.5651 96.9353M86.0697 102.814L97.9997 101.258M86.0697 102.814L94.7146 107.136" stroke="black" stroke-width="2" stroke-linejoin="round"/>
<path d="M68.2578 12.7301C72.8108 11.7055 81.9168 11.8481 81.9168 20.6161" stroke="black" stroke-width="2" stroke-linejoin="round"/>
<path d="M68.6016 2.35728C75.3896 -0.00566848 88.9657 -0.962372 88.9657 14.1144" stroke="black" stroke-width="2" stroke-linejoin="round"/>
</svg>
