<svg width="67" height="110" viewBox="0 0 67 110" fill="none" xmlns="http://www.w3.org/2000/svg">
<path d="M22 37H31" stroke="black" stroke-width="4"/>
<path d="M35.5371 93.9717C35.6678 97.319 34.7667 100.603 32.7285 103.356C27.4256 110.519 16.4385 111.374 8.1875 105.266C-0.0634947 99.1571 -2.45409 88.3983 2.84863 81.2354C8.15158 74.0725 19.1395 73.2177 27.3906 79.3262C28.0208 79.7927 28.6168 80.2866 29.1777 80.8037L35.834 0.78125H42.3477L35.5371 93.9717Z" fill="#87B5FF"/>
<path d="M14.5 48.5V74.5M14.5 74.5L7 82M14.5 74.5V82M14.5 74.5L22 82" stroke="black" stroke-width="2"/>
<path d="M58.5 48.5V74.5M58.5 74.5L51 82M58.5 74.5V82M58.5 74.5L66 82" stroke="black" stroke-width="2"/>
<path d="M24.5 51C31.5 51 38.5 51 49 51" stroke="black" stroke-width="4"/>
<path d="M44 37H53" stroke="black" stroke-width="4"/>
</svg>
