<svg width="119" height="109" viewBox="0 0 119 109" fill="none" xmlns="http://www.w3.org/2000/svg">
<path d="M70.4131 5.12402C75.565 1.06276 80.3575 0.342455 86.8154 1.49707C89.4005 1.95928 92.5518 3.57441 94.6289 4.77148C95.4463 5.19483 96.2198 5.65268 96.8672 6.14062C101.442 9.58924 102.171 13.3683 105.005 18.3477C107.196 22.1981 110.068 28.4938 110.081 28.5215C110.081 28.5215 114.596 38.8919 114.149 45.8154C113.914 49.4702 113.26 51.4917 112.115 54.9707C110.542 59.7535 106.794 65.5335 104.317 69.0527C103.92 69.6179 103.044 69.1526 103.253 68.4941C104.415 64.8459 105.947 59.2554 106.012 54.9707C106.109 48.5045 106.43 44.1512 102.96 38.6943C98.9432 32.3786 91.8189 28.7954 84.7188 30.8096C80.7696 37.9312 75.955 45.8996 70.4131 53.7207C58.521 70.5034 50.9742 96.2377 50.9395 96.3564L50.8994 96.2744C48.8539 103.902 37.9679 109.376 25.1064 108.822C11.0507 108.217 -0.0391994 100.644 0.336914 91.9062C0.713206 83.169 12.4132 76.5766 26.4688 77.1816C35.0339 77.5504 42.4976 80.5068 46.9365 84.7373C47.2257 77.2067 48.3979 57.7251 53.0479 40.6143C54.5645 35.0333 57.4179 26.6055 64.1953 12.8975C66.6423 7.94829 66.0773 8.54203 70.4131 5.12402Z" fill="#FF9790"/>
<path d="M56.2698 37.1769L31 23.5234L32.1231 26.8191C40.5464 50.3595 50.4671 42.5127 56.2698 37.1769Z" stroke="black" stroke-width="2.97291"/>
<path d="M68.1599 37.1769L93.4297 23.5234L92.3066 26.8191C83.8833 50.3595 73.9626 42.5127 68.1599 37.1769Z" stroke="black" stroke-width="2.97291"/>
<path d="M42.6395 60.5011C36.7552 54.4393 24.4628 47.3733 22.3673 67.6038M22.3673 67.6038L25.3476 71.8636M22.3673 67.6038L19.5127 72.3713M22.3673 67.6038L14.5257 70.3226" stroke="black" stroke-width="2"/>
<path d="M64.7556 72.039C79.279 63.0524 100.871 52.8994 71.0519 84.1798M71.0519 84.1798L64 84.8936M71.0519 84.1798L66.0148 87.7502M71.0519 84.1798V89" stroke="black" stroke-width="2"/>
<path d="M108.088 1.36719C110.07 4.58784 112.027 10.5089 104 8.42786" stroke="black" stroke-width="1.85807"/>
<path d="M108.088 18.8984C110.07 15.6778 112.027 9.75673 104 11.8378" stroke="black" stroke-width="1.85807"/>
<path d="M114.67 1C112.688 4.22066 110.731 10.1417 118.758 8.06067" stroke="black" stroke-width="1.85807"/>
<path d="M114.67 18.8984C112.688 15.6778 110.731 9.75673 118.758 11.8378" stroke="black" stroke-width="1.85807"/>
</svg>
