<svg width="91" height="110" viewBox="0 0 91 110" fill="none" xmlns="http://www.w3.org/2000/svg">
<path d="M44.5371 93.9717C44.6678 97.319 43.7667 100.603 41.7285 103.356C36.4256 110.519 25.4385 111.374 17.1875 105.266C8.93651 99.1571 6.54591 88.3983 11.8486 81.2354C17.1516 74.0725 28.1395 73.2177 36.3906 79.3262C37.0208 79.7927 37.6168 80.2866 38.1777 80.8037L44.834 0.78125H51.3477L44.5371 93.9717Z" fill="#87B5FF"/>
<path d="M27 29.5L39 34.5L27 38" stroke="black" stroke-width="4"/>
<path d="M67 29.5L55 34.5L67 38" stroke="black" stroke-width="4"/>
<path d="M28.5 45C20.1667 47 3.2 54.9 2 70.5" stroke="black" stroke-width="4" stroke-dasharray="10 10"/>
<path d="M58 42C67.7484 44.7451 87.5962 55.5882 89 77" stroke="black" stroke-width="4" stroke-dasharray="10 10"/>
<path d="M32.5 51.001C37.1667 47.8344 48.6 43.401 57 51.001" stroke="black" stroke-width="4"/>
</svg>
