<svg width="137" height="121" viewBox="0 0 137 121" fill="none" xmlns="http://www.w3.org/2000/svg">
<path d="M42.6835 11.2353L82.9585 38.6235C83.8013 39.1966 83.3438 40.5787 82.3247 40.591C65.1 40.7993 46.0514 50.8475 86 91.1509C86 93.8757 55.0202 96.589 81.9457 117.958C82.8028 118.638 82.1942 120.055 81.1398 119.763C48.7942 110.797 8.68099 85.7744 78.7088 90.5769L32.944 55.8612C32.0146 55.1561 33.1987 51.7408 34.3502 51.5539C38.5295 50.8756 43.7129 49.0502 47.7593 44.956C54.4342 38.2021 47.4218 22.7838 41.1392 12.768C40.5432 11.8179 41.7561 10.6046 42.6835 11.2353Z" fill="#FFAFF1"/>
<rect x="55.9609" y="27.7812" width="9.62844" height="21.3631" rx="3.61066" fill="#D9D9D9"/>
<path d="M55.9609 31.3919C55.9609 29.3978 57.5775 27.7812 59.5716 27.7812H61.9787C63.9728 27.7812 65.5894 29.3978 65.5894 31.3919V38.6575C65.5894 39.2219 65.4571 39.7784 65.2031 40.2824L62.796 45.059C61.0841 48.456 55.9609 47.2381 55.9609 43.4342V31.3919Z" fill="black"/>
<rect x="73.4141" y="22.9688" width="9.62844" height="21.3631" rx="3.61066" fill="#D9D9D9"/>
<path d="M73.4141 26.5794C73.4141 24.5853 75.0306 22.9688 77.0247 22.9688H79.4318C81.426 22.9688 83.0425 24.5853 83.0425 26.5794V33.845C83.0425 34.4094 82.9102 34.9659 82.6562 35.4699L80.2491 40.2465C78.5373 43.6435 73.4141 42.4256 73.4141 38.6217V26.5794Z" fill="black"/>
<path d="M36 61.5L12.5 36.5M12.5 36.5L1 34.5M12.5 36.5L6 26.5M12.5 36.5L17.5 26.5" stroke="black" stroke-width="2"/>
<path d="M97.5 69L125 24M125 24V14M125 24L132 16M125 24H137" stroke="black" stroke-width="2"/>
<path d="M69 47C69.2054 47 69.5787 47.0909 70.1094 47.626C70.6475 48.1688 71.2248 49.0565 71.752 50.3135C72.8027 52.8191 73.5 56.4194 73.5 60.5C73.5 64.5806 72.8027 68.1809 71.752 70.6865C71.2248 71.9435 70.6475 72.8312 70.1094 73.374C69.5787 73.9091 69.2054 74 69 74C68.7946 74 68.4213 73.9091 67.8906 73.374C67.3525 72.8312 66.7752 71.9435 66.248 70.6865C65.1973 68.1809 64.5 64.5806 64.5 60.5C64.5 56.4194 65.1973 52.8191 66.248 50.3135C66.7752 49.0565 67.3525 48.1688 67.8906 47.626C68.4213 47.0909 68.7946 47 69 47Z" stroke="black" stroke-width="4"/>
<path d="M30 9.5L28 0.5" stroke="black" stroke-width="2"/>
<path d="M23.5 12L16 5.5" stroke="black" stroke-width="2"/>
</svg>
