<svg width="43" height="43" viewBox="0 0 43 43" fill="none" xmlns="http://www.w3.org/2000/svg">
<path d="M14.8672 9.31234C14.8658 8.85757 15.023 8.41653 15.3117 8.06515C15.6004 7.71376 16.0025 7.47401 16.4489 7.38715L33.7747 3.99827C34.2826 3.89751 34.8097 4.00262 35.2401 4.29049C35.6705 4.57837 35.9689 5.02542 36.0697 5.53331M36.0794 28.1027L36.1067 10.5453C36.1068 10.2567 36.0428 9.97166 35.9195 9.71073C35.7962 9.44979 35.6165 9.21944 35.3935 9.03626C35.1705 8.85308 34.9096 8.72161 34.6297 8.65133C34.3498 8.58105 34.0578 8.5737 33.7747 8.6298L16.4489 12.0187C16.0025 12.1055 15.6004 12.3453 15.3117 12.6967C15.023 13.0481 14.8658 13.4891 14.8672 13.9439V33.9504" stroke="#728EF1" stroke-width="1.15714" stroke-linecap="round" stroke-linejoin="round"/>
<path d="M10.5208 38.3151C12.927 38.3151 14.8776 36.3645 14.8776 33.9583C14.8776 31.5522 12.927 29.6016 10.5208 29.6016C8.11465 29.6016 6.16406 31.5522 6.16406 33.9583C6.16406 36.3645 8.11465 38.3151 10.5208 38.3151Z" stroke="#728EF1" stroke-width="1.15714" stroke-linecap="round" stroke-linejoin="round"/>
<path d="M31.7239 32.4635C34.1301 32.4635 36.0807 30.5129 36.0807 28.1068C36.0807 25.7006 34.1301 23.75 31.7239 23.75C29.3178 23.75 27.3672 25.7006 27.3672 28.1068C27.3672 30.5129 29.3178 32.4635 31.7239 32.4635Z" stroke="#728EF1" stroke-width="1.15714" stroke-linecap="round" stroke-linejoin="round"/>
</svg>
