<svg width="29" height="40" viewBox="0 0 29 40" fill="none" xmlns="http://www.w3.org/2000/svg">
<path d="M22.9443 0.678711C25.5732 0.678715 27.7041 2.80963 27.7041 5.43848V32.0674C27.7041 34.6962 25.5732 36.8271 22.9443 36.8271H0.678711V0.678711H22.9443Z" stroke="#728EF1" stroke-width="1.35705"/>
<path d="M7.5866 27.5031C8.36807 27.1299 9.15835 27.0311 9.78983 27.1425C10.423 27.2542 10.8397 27.5598 11.0258 27.9494C11.2117 28.3389 11.1871 28.8545 10.876 29.417C10.5656 29.9781 9.99246 30.5314 9.21095 30.9047C8.42932 31.2779 7.63799 31.3762 7.00641 31.2648C6.37361 31.153 5.95784 30.8477 5.77179 30.4583C5.58578 30.0688 5.6092 29.5528 5.92029 28.9903C6.23068 28.4291 6.80498 27.8763 7.5866 27.5031Z" fill="#728EF1" stroke="#728EF1" stroke-width="1.35705"/>
<path d="M3.5625 0.515625L5.02344 28.2735C5.06273 29.02 5.25555 29.7504 5.58984 30.419V30.419" stroke="#728EF1" stroke-width="1.35705" stroke-linejoin="round"/>
<path d="M17.2116 27.5031C17.9931 27.1299 18.7834 27.0311 19.4148 27.1425C20.048 27.2542 20.4647 27.5598 20.6508 27.9494C20.8367 28.3389 20.8121 28.8545 20.501 29.417C20.1906 29.9781 19.6175 30.5314 18.8359 30.9047C18.0543 31.2779 17.263 31.3762 16.6314 31.2648C15.9986 31.153 15.5828 30.8477 15.3968 30.4583C15.2108 30.0688 15.2342 29.5528 15.5453 28.9903C15.8557 28.4291 16.43 27.8763 17.2116 27.5031Z" fill="#728EF1" stroke="#728EF1" stroke-width="1.35705"/>
<path d="M13.1797 0.515625L14.6406 28.2735C14.6799 29.02 14.8727 29.7504 15.207 30.419V30.419" stroke="#728EF1" stroke-width="1.35705" stroke-linejoin="round"/>
<path d="M23.3125 0.515625V37.0078" stroke="#728EF1" stroke-width="1.35705" stroke-linejoin="round"/>
<path d="M4.05469 39.5342V37.2534C4.05469 37.1135 4.16815 37 4.30811 37V37C4.44806 37 4.56152 37.1135 4.56152 37.2534V39.5342" stroke="#728EF1" stroke-width="1.35705" stroke-linejoin="round"/>
</svg>
