<svg width="37" height="37" viewBox="0 0 37 37" fill="none" xmlns="http://www.w3.org/2000/svg">
<path d="M5.18517 35.7358C5.75775 35.7501 6.32739 35.6497 6.86057 35.4405C7.39374 35.2313 7.87965 34.9175 8.28968 34.5176C8.69971 34.1177 9.02557 33.6398 9.24806 33.112C9.47054 32.5842 9.58516 32.0173 9.58516 31.4445C9.58516 30.8718 9.47054 30.3048 9.24806 29.7771C9.02557 29.2493 8.69971 28.7714 8.28968 28.3715C7.87965 27.9716 7.39374 27.6578 6.86057 27.4486C6.32739 27.2394 5.75775 27.139 5.18517 27.1533C4.06566 27.1813 3.00142 27.6457 2.21953 28.4474C1.43764 29.2491 1 30.3247 1 31.4445C1 32.5644 1.43764 33.6399 2.21953 34.4416C3.00142 35.2433 4.06566 35.7078 5.18517 35.7358ZM24.5004 31.4432C25.073 31.4575 25.6427 31.3571 26.1758 31.1479C26.709 30.9387 27.1949 30.6249 27.605 30.225C28.015 29.8251 28.3408 29.3472 28.5633 28.8194C28.7858 28.2917 28.9004 27.7247 28.9004 27.152C28.9004 26.5792 28.7858 26.0122 28.5633 25.4845C28.3408 24.9567 28.015 24.4788 27.605 24.0789C27.1949 23.679 26.709 23.3652 26.1758 23.156C25.6427 22.9468 25.073 22.8464 24.5004 22.8607C23.3809 22.8887 22.3167 23.3532 21.5348 24.1549C20.7529 24.9566 20.3153 26.0321 20.3153 27.152C20.3153 28.2718 20.7529 29.3473 21.5348 30.1491C22.3167 30.9508 23.3809 31.4152 24.5004 31.4432Z" stroke="#666666" stroke-width="1.15714" stroke-linecap="round" stroke-linejoin="round"/>
<path d="M9.48438 31.4469V14.0239C9.4857 13.7885 9.56425 13.56 9.70798 13.3736C9.85171 13.1871 10.0527 13.053 10.28 12.9918L13.6668 12.0214M9.48438 19.6443L20.3973 16.6124M28.797 27.157V23.3697M19.3624 10.2313C18.4217 10.0673 18.4217 8.71261 19.3624 8.54865C21.0328 8.25704 22.5788 7.47519 23.8036 6.30254C25.0284 5.12989 25.8768 3.61943 26.2408 1.96329L26.2972 1.70256C26.5015 0.769857 27.8293 0.764482 28.0417 1.6945L28.1089 1.99823C28.4845 3.64797 29.3398 5.1497 30.5671 6.31435C31.7944 7.47901 33.3389 8.25453 35.006 8.54327C35.9548 8.70992 35.9548 10.07 35.006 10.2367C33.3389 10.5254 31.7944 11.3009 30.5671 12.4656C29.3398 13.6302 28.4845 15.132 28.1089 16.7817L28.0417 17.0827C27.8266 18.0154 26.5015 18.0074 26.2972 17.0774L26.2408 16.8166C25.8768 15.1605 25.0284 13.65 23.8036 12.4774C22.5788 11.3047 21.0328 10.5229 19.3624 10.2313Z" stroke="#666666" stroke-width="1.15714" stroke-linecap="round" stroke-linejoin="round"/>
</svg>
